HIERARCHY
ROOT Hips
{
    OFFSET 0.000000 0.000000 0.000000
    CHANNELS 6 Xposition Yposition Zposition Zrotation Xrotation Yrotation
    JOINT Spine
    {
        OFFSET -0.000000 14.517291 0.000000
        CHANNELS 3 Zrotation Xrotation Yrotation
        JOINT Spine1
        {
            OFFSET -0.000000 37.558300 0.000000
            CHANNELS 3 Zrotation Xrotation Yrotation
            JOINT Neck
            {
                OFFSET -0.000000 37.404057 3.400369
                CHANNELS 3 Zrotation Xrotation Yrotation
                JOINT Head
                {
                    OFFSET -0.000000 24.785618 -3.540803
                    CHANNELS 3 Zrotation Xrotation Yrotation
                    End Site
                    {
                        OFFSET -0.000000 35.408028 0.000000
                    }
                }
            }
            JOINT LeftShoulder
            {
                OFFSET 6.992933 33.973492 -0.192664
                CHANNELS 3 Zrotation Xrotation Yrotation
                JOINT LeftArm
                {
                    OFFSET 21.527611 0.000000 0.000000
                    CHANNELS 3 Zrotation Xrotation Yrotation
                    JOINT LeftForeArm
                    {
                        OFFSET 56.353916 0.000000 0.000000
                        CHANNELS 3 Zrotation Xrotation Yrotation
                        JOINT LeftHand
                        {
                            OFFSET 47.774071 0.000000 0.000000
                            CHANNELS 3 Zrotation Xrotation Yrotation
                            End Site
                            {
                                OFFSET 26.556021 0.000000 0.000000
                            }
                        }
                    }
                }
            }
            JOINT RightShoulder
            {
                OFFSET -7.065357 33.973492 -0.192664
                CHANNELS 3 Zrotation Xrotation Yrotation
                JOINT RightArm
                {
                    OFFSET -21.527611 0.000000 0.000000
                    CHANNELS 3 Zrotation Xrotation Yrotation
                    JOINT RightForeArm
                    {
                        OFFSET -56.353916 0.000000 0.000000
                        CHANNELS 3 Zrotation Xrotation Yrotation
                        JOINT RightHand
                        {
                            OFFSET -47.774071 0.000000 0.000000
                            CHANNELS 3 Zrotation Xrotation Yrotation
                            End Site
                            {
                                OFFSET -26.556021 0.000000 0.000000
                            }
                        }
                    }
                }
            }
        }
    }
    JOINT LeftUpLeg
    {
        OFFSET 17.704014 0.000000 0.000000
        CHANNELS 3 Zrotation Xrotation Yrotation
        JOINT LeftLeg
        {
            OFFSET -0.000000 -81.181816 0.000000
            CHANNELS 3 Zrotation Xrotation Yrotation
            JOINT LeftFoot
            {
                OFFSET -0.000000 -62.821102 0.000000
                CHANNELS 3 Zrotation Xrotation Yrotation
                JOINT LeftToeBase
                {
                    OFFSET -0.000000 -11.507608 26.556021
                    CHANNELS 3 Zrotation Xrotation Yrotation
                    End Site
                    {
                        OFFSET -0.000000 0.000000 7.081605
                    }
                }
            }
        }
    }
    JOINT RightUpLeg
    {
        OFFSET -17.704014 0.000000 0.000000
        CHANNELS 3 Zrotation Xrotation Yrotation
        JOINT RightLeg
        {
            OFFSET -0.000000 -81.181816 0.000000
            CHANNELS 3 Zrotation Xrotation Yrotation
            JOINT RightFoot
            {
                OFFSET -0.000000 -62.821102 0.000000
                CHANNELS 3 Zrotation Xrotation Yrotation
                JOINT RightToeBase
                {
                    OFFSET -0.000000 -11.507608 26.556021
                    CHANNELS 3 Zrotation Xrotation Yrotation
                    End Site
                    {
                        OFFSET -0.000000 0.000000 7.081605
                    }
                }
            }
        }
    }
}
MOTION
Frames:    9
Frame Time:    0.008333
-21.069506    134.351639    -31.227129    0.282576    -2.941153    42.743317    -1.970852    2.884975    -2.007813    -2.502494    0.177698    -0.681819    0.577045    8.439833    -18.508949    15.295974    -7.742715    -16.194757    1.459342    9.531004    -14.315908    -33.418289    20.671051    -46.075516    -3.092646    -29.816935    -117.787216    -13.521266    -32.630489    -15.420896    0.887024    11.594330    -6.212686    29.625685    15.314265    42.255569    -6.001701    8.453452    36.346264    -23.443710    2.484672    37.011772    34.801239    0.462447    -3.905155    -19.434982    45.432140    -20.171234    -4.894571    -42.513508    42.827034    0.000000    0.000000    0.000000    -40.139393    -28.444489    -28.816017    31.294218    52.593628    -27.691931    4.336326    -7.461606    -1.703780    0.000000    0.000000    0.000000    
-21.082317    134.361298    -31.188000    0.254334    -2.917425    42.748222    -1.945870    2.882315    -2.006582    -2.522356    0.141396    -0.682013    0.594954    8.420603    -18.504505    15.275863    -7.732071    -16.196995    1.479699    9.535101    -14.312505    -33.433228    20.659645    -46.066795    -3.100117    -29.802298    -117.793831    -13.453339    -32.637249    -15.401666    0.894480    11.590455    -6.211056    29.629271    15.297462    42.226986    -5.994248    8.427979    36.359013    -23.439537    2.472013    36.954250    34.807114    0.441802    -3.881060    -19.419815    45.409916    -20.161098    -4.903435    -42.494514    42.838284    0.000000    0.000000    0.000000    -40.177780    -28.422754    -28.912191    31.361094    52.574879    -27.759144    4.319523    -7.452360    -1.609769    0.000000    0.000000    0.000000    
-21.091583    134.369919    -31.150112    0.229851    -2.901330    42.747700    -1.910031    2.891621    -1.998679    -2.555386    0.100483    -0.679953    0.623348    8.411158    -18.501230    15.255033    -7.735774    -16.199478    1.509697    9.551470    -14.306705    -33.430489    20.654352    -46.075523    -3.103518    -29.815899    -117.801857    -13.433622    -32.669060    -15.294256    0.906107    11.590874    -6.222330    29.633875    15.272644    42.203594    -5.992894    8.428978    36.377468    -23.467503    2.460197    36.970119    34.823544    0.431348    -3.871317    -19.431904    45.383919    -20.146242    -4.909032    -42.468796    42.852303    0.000000    0.000000    0.000000    -40.208294    -28.399475    -29.025858    31.390556    52.571182    -27.799028    4.289508    -7.444142    -1.488278    0.000000    0.000000    0.000000    
-21.099844    134.373306    -31.113581    0.201454    -2.883954    42.755688    -1.876405    2.896224    -2.002982    -2.574669    0.064125    -0.681973    0.625897    8.406561    -18.493725    15.256771    -7.750069    -16.189569    1.525666    9.537722    -14.308419    -33.450512    20.666376    -46.021988    -3.109610    -29.816936    -117.820770    -13.463834    -32.675915    -15.303111    0.903665    11.554355    -6.201621    29.641273    15.287997    42.126686    -6.024601    8.434477    36.424263    -23.496172    2.458048    37.016918    34.842396    0.405702    -3.844679    -19.427605    45.378273    -20.119946    -4.952797    -42.446594    42.818893    0.000000    0.000000    0.000000    -40.250942    -28.370478    -29.177820    31.416626    52.585369    -27.793863    4.279016    -7.441957    -1.409115    0.000000    0.000000    0.000000    
-21.109922    134.373672    -31.075611    0.171670    -2.863961    42.764378    -1.847527    2.896373    -2.004696    -2.593866    0.031381    -0.683038    0.623219    8.395150    -18.489918    15.271164    -7.750944    -16.182402    1.538337    9.532483    -14.294619    -33.427090    20.682764    -46.025925    -3.115540    -29.847126    -117.833176    -13.379477    -32.730183    -15.243543    0.902304    11.547036    -6.209397    29.626801    15.327862    42.101505    -6.100125    8.398052    36.458553    -23.504259    2.432159    37.073692    34.867374    0.374156    -3.817809    -19.440359    45.377930    -20.096107    -4.974976    -42.425823    42.804783    0.000000    0.000000    0.000000    -40.297798    -28.341665    -29.325294    31.461231    52.587158    -27.823160    4.245716    -7.435629    -1.304988    0.000000    0.000000    0.000000    
-21.115070    134.370926    -31.034428    0.148254    -2.856826    42.779743    -1.818854    2.903848    -2.012180    -2.604449    0.007273    -0.685839    0.622715    8.392632    -18.485231    15.278206    -7.765823    -16.174059    1.543158    9.522162    -14.293880    -33.400208    20.701185    -46.016354    -3.109403    -29.892496    -117.845772    -13.346204    -32.774517    -15.203903    0.893317    11.524810    -6.193275    29.636806    15.326482    42.043259    -6.135733    8.404174    36.499512    -23.520573    2.439854    37.103786    34.898777    0.357276    -3.813082    -19.452181    45.364750    -20.063879    -5.016381    -42.405991    42.765278    0.000000    0.000000    0.000000    -40.347343    -28.293427    -29.436659    31.566956    52.576523    -27.907047    4.209680    -7.432598    -1.198245    0.000000    0.000000    0.000000    
-21.118782    134.365112    -30.994589    0.131992    -2.842973    42.798717    -1.793042    2.903866    -2.020370    -2.631924    -0.006789    -0.688690    0.624851    8.391880    -18.479246    15.295292    -7.782024    -16.162313    1.555287    9.510054    -14.294004    -33.376106    20.702021    -46.008389    -3.138746    -29.913691    -117.861801    -13.308434    -32.844040    -15.181594    0.903455    11.516582    -6.188174    29.623451    15.319807    42.013100    -6.154092    8.388051    36.543156    -23.514626    2.442302    37.069401    34.919262    0.340202    -3.794466    -19.435665    45.355721    -20.078411    -5.059646    -42.399738    42.738098    0.000000    0.000000    0.000000    -40.411091    -28.245415    -29.568485    31.647175    52.575245    -28.012596    4.196793    -7.419614    -1.042823    0.000000    0.000000    0.000000    
-21.118692    134.355347    -30.954531    0.122350    -2.832569    42.815773    -1.777883    2.908842    -2.023755    -2.649499    -0.015204    -0.689870    0.634591    8.381788    -18.480265    15.297522    -7.795021    -16.162006    1.560862    9.487481    -14.315178    -33.368912    20.689857    -45.973476    -3.143404    -29.917236    -117.875214    -13.301693    -32.856033    -15.180997    0.915468    11.506604    -6.192983    29.638262    15.243649    41.990978    -6.098329    8.426940    36.571766    -23.554113    2.460053    37.030384    34.941174    0.341312    -3.791463    -19.432110    45.328571    -20.115955    -5.061987    -42.394150    42.742210    0.000000    0.000000    0.000000    -40.476891    -28.194250    -29.679039    31.759514    52.574059    -28.100803    4.152246    -7.423848    -0.930579    0.000000    0.000000    0.000000    
-21.112654    134.344894    -30.909950    0.113923    -2.815783    42.831440    -1.775637    2.883026    -2.025537    -2.657415    0.011653    -0.689745    0.649797    8.382341    -18.487869    15.295785    -7.831234    -16.166735    1.564556    9.471404    -14.333306    -33.345551    20.677288    -45.959759    -3.140043    -29.951571    -117.874695    -13.320628    -32.881924    -15.185875    0.919600    11.497215    -6.199826    29.621786    15.220631    41.990761    -6.088459    8.433348    36.581169    -23.578560    2.445779    37.071041    34.957573    0.348317    -3.781073    -19.420153    45.292969    -20.162388    -5.083075    -42.406563    42.741623    0.000000    0.000000    0.000000    -40.549007    -28.152025    -29.804949    31.855339    52.593185    -28.176378    4.112591    -7.425533    -0.831679    0.000000    0.000000    0.000000    
